Coordinates
version=1
nRows=19
nColumns=36
inDegrees=yes

Units are S.I. units (second, meters, Newtons, ...)
If the header above contains a line with 'inDegrees', this indicates whether rotational values are in degrees (yes) or radians (no).

endheader
time	pelvis_tilt	pelvis_list	pelvis_rotation	pelvis_tx	pelvis_ty	pelvis_tz	hip_flexion_r	hip_adduction_r	hip_rotation_r	knee_angle_r	knee_angle_r_beta	ankle_angle_r	subtalar_angle_r	mtp_angle_r	hip_flexion_l	hip_adduction_l	hip_rotation_l	knee_angle_l	knee_angle_l_beta	ankle_angle_l	subtalar_angle_l	mtp_angle_l	lumbar_extension	lumbar_bending	lumbar_rotation	arm_flex_r	arm_add_r	arm_rot_r	elbow_flex_r	pro_sup_r	arm_flex_l	arm_add_l	arm_rot_l	elbow_flex_l	pro_sup_l
      1.97083330	    -11.40942591	     -2.25539418	     -2.11705166	      0.20209541	      0.78100097	     -0.06902512	     52.95584912	     -2.11048400	      0.51453254	     73.03596305	      1.27471803	     23.64890191	     -4.37754198	     -7.49999987	     49.39923377	      0.69824073	     13.07350923	     75.31176612	      1.31443828	     25.05822764	    -18.39392672	     -7.49999987	    -41.21436383	      3.80896807	     -3.20590917	     24.06420638	    -13.56007603	      9.29910079	     26.11875848	     80.49737696	     27.56681011	    -10.92814764	     17.08133724	     26.71846751	     66.20034487
      1.97500000	    -11.28934336	     -2.38999981	     -1.96576696	      0.20649487	      0.77808928	     -0.06384916	     52.56005315	     -1.12981405	      0.33931947	     72.67200214	      1.26836571	     23.99618312	     -4.84519343	     -7.49999987	     49.10779580	     -0.53643051	     13.04594146	     74.73571359	      1.30438427	     25.04657636	    -17.02929138	     -7.49999987	    -40.49522320	      2.97977301	     -2.73615172	     21.00943400	    -12.41329279	      4.53250721	     25.28163955	     78.72873882	     26.23206590	    -12.29999078	     18.21792351	     23.35119811	     66.39759783
      1.97916670	    -11.28891256	     -2.52538621	     -1.82426970	      0.21337843	      0.77907022	     -0.05343815	     51.96858127	      0.02686527	      0.26099983	     72.42412348	      1.26403941	     24.03531229	     -5.97827738	     -7.49999987	     48.68176300	     -1.77605273	     13.08120403	     74.44034841	      1.29922918	     25.30415539	    -15.43258357	     -7.49999987	    -39.41390216	      2.11242925	     -2.98712317	     17.97687795	    -10.92508010	      3.68215281	     24.26488507	     78.46611939	     23.45224524	    -14.38398263	     18.11286949	     21.42164838	     66.29122215
      1.98333330	    -11.26837462	     -2.59325863	     -1.90169251	      0.21726653	      0.78231881	     -0.05383215	     51.29609725	      0.90698734	      0.55166838	     71.94059508	      1.25560025	     24.07734109	     -6.76626184	     -7.49999987	     48.16543533	     -2.75152822	     12.60434524	     73.99161285	      1.29139726	     25.76749107	    -13.69289443	     -7.49999987	    -38.21725341	      1.37995722	     -3.03415642	     15.35216949	     -9.94961411	      2.24812839	     22.92021497	     78.06860174	     20.74606873	    -15.79070887	     17.74687695	     19.36748697	     66.05165936
      1.98750000	    -11.00025921	     -2.61306674	     -2.14735749	      0.21751345	      0.79011320	     -0.05826508	     50.40025665	      1.32584528	      0.97909461	     71.17841766	      1.24229774	     23.59717120	     -7.07388157	     -7.49999987	     47.11733656	     -3.16011271	     12.03810000	     73.02276456	      1.27448767	     25.73534443	    -13.01790800	     -7.49999987	    -37.52175853	      1.00572728	     -2.82279671	     12.62391446	     -9.00973027	     -2.09882440	     21.92718115	     77.10834606	     18.60160195	    -16.06753176	     16.73121235	     17.39233186	     65.17154916
      1.99166670	    -10.67752783	     -2.41823095	     -2.58355953	      0.22107933	      0.79542188	     -0.06002958	     49.14773121	      1.45376221	      1.71241772	     69.97534484	      1.22130016	     23.03112456	     -7.24933265	     -7.49999987	     45.82824650	     -3.26197820	     11.27711457	     71.80894384	      1.25330250	     25.49922981	    -12.81590170	     -7.49999987	    -36.86141475	      0.77458691	     -3.02466726	     10.72155828	     -8.71548879	     -3.07912791	     20.35105796	     76.28993105	     16.36406637	    -16.21729376	     16.20546627	     15.17558545	     64.72004120
      1.99583330	    -10.79495661	     -2.26438031	     -3.04686243	      0.21975084	      0.79349716	     -0.05814045	     48.97685867	      1.67136346	      2.26765117	     69.53610047	      1.21363390	     23.01263287	     -7.56396379	     -7.49999987	     45.54455696	     -3.52451053	     10.43327318	     71.29969460	      1.24441443	     25.46537853	    -12.88907615	     -7.49999987	    -35.66031463	      0.51177548	     -3.37115314	      8.55280318	     -8.74138724	     -4.03710593	     19.50725649	     76.08268189	     13.91342843	    -16.50861874	     15.87118233	     13.31669199	     64.54262753
      2.00000000	    -11.07445729	     -2.17552243	     -3.08632108	      0.21378338	      0.80511593	     -0.05752907	     48.88310212	      1.64116017	      2.43416305	     68.25386954	      1.19125475	     21.90170001	     -7.89337277	     -7.49999987	     45.50260062	     -3.49462079	     10.13391517	     70.26727196	      1.22639525	     24.33142734	    -13.26169031	     -7.49999987	    -35.01024419	      0.36969859	     -3.08842266	      7.09752635	     -8.56399245	     -8.40674680	     18.42826358	     75.30278118	     12.92846569	    -16.29077502	     13.29118025	     10.63787428	     63.32952650
      2.00416670	    -11.65140075	     -1.99152816	     -3.26282831	      0.21724222	      0.80090064	     -0.06112073	     49.44448940	      1.32498194	      2.57950141	     67.83148315	      1.18388272	     21.46071865	     -8.04267736	     -7.49999987	     45.94075549	     -3.34921480	      9.82519084	     69.90196401	      1.22001943	     24.37684253	    -13.03888990	     -7.49999987	    -33.54062128	      0.24349028	     -3.36252373	      5.79117347	     -9.07012028	     -9.01486356	     16.53649965	     75.27861271	     11.03090344	    -16.22864082	     12.91649512	      8.63256957	     63.18407884
      2.00833330	    -12.41746234	     -1.75523569	     -3.33965761	      0.22217995	      0.80037114	     -0.06671890	     49.93655935	      0.76974455	      2.64740935	     67.37889162	      1.17598351	     20.99389999	     -8.21043685	     -7.49999987	     46.45902021	     -2.94811671	      9.42108061	     69.56513573	      1.21414066	     24.39465322	    -12.89546138	     -7.49999987	    -31.73291396	      0.13373790	     -3.58455646	      4.43366653	     -9.63086407	     -9.40285891	     14.56475433	     75.31119093	      9.29771586	    -15.83282484	     12.49290861	      6.63447078	     63.00422741
      2.01250000	    -12.70141976	     -1.71179425	     -3.07603044	      0.22178843	      0.80818215	     -0.06294499	     49.55386912	      0.57273504	      2.59032480	     66.35541958	      1.15812055	     20.60123247	     -8.41548629	     -7.49999987	     46.33190466	     -2.85572220	      9.29511943	     68.49713656	      1.19550056	     23.70370844	    -12.85904053	     -7.49999987	    -30.63126449	      0.16998720	     -3.87873108	      2.72741717	    -10.30173050	     -9.83141758	     12.88930557	     74.53992097	      7.48898243	    -15.79966708	     11.76508487	      4.47383669	     62.63677369
      2.01666670	    -12.83273925	     -1.65114376	     -2.96513765	      0.22505631	      0.80930739	     -0.06359905	     49.15603559	      0.37610400	      2.45987988	     65.80669653	      1.14854352	     20.33366418	     -8.58469281	     -7.49999987	     45.93866488	     -2.90140609	      9.02792058	     67.79294218	      1.18321005	     23.94424824	    -12.01534014	     -7.49999987	    -29.48371275	      0.06452912	     -4.16383750	      1.59789744	    -10.87920092	     -9.03148487	      9.92246559	     73.87875425	      4.81541086	    -15.67211823	     11.32429344	      3.74804628	     62.25542740
      2.02083330	    -12.89764292	     -1.71684232	     -2.65543468	      0.22882782	      0.81571491	     -0.05947409	     48.28698408	      0.41300206	      2.21202332	     64.59199736	      1.12734302	     20.10273913	     -8.52295259	     -7.49999987	     45.25564816	     -3.17582422	      8.97534593	     66.68566075	      1.16388434	     23.48500440	    -11.76658304	     -7.49999987	    -28.51196449	     -0.21497168	     -4.04121749	     -0.74946792	    -10.82798898	     -8.93166975	      9.06654868	     73.93927448	      2.64147391	    -16.07895270	     11.23687331	      2.94757980	     62.22101374
      2.02500000	    -12.83965352	     -1.78355226	     -2.49792978	      0.23400557	      0.82103249	     -0.05865729	     47.29410303	      0.59599481	      2.13076681	     63.35632112	      1.10577641	     19.36743716	     -9.20359724	     -7.49999987	     44.26673254	     -3.49582665	      8.94005474	     65.33188732	      1.14025654	     22.81078624	    -11.43916247	     -7.49999987	    -27.35672967	     -0.46846364	     -4.62274694	     -2.45172521	    -11.48094308	      0.27754461	      6.66321090	     76.45768041	     -0.37504736	    -16.33935683	      9.37340831	      2.40737969	     61.40113086
      2.02916670	    -12.72133241	     -1.77738775	     -2.50052970	      0.23644290	      0.82669635	     -0.06093830	     46.22900348	      0.58273965	      1.91879695	     62.17233586	      1.08511196	     18.99570463	     -9.14804137	     -7.49999987	     43.26571330	     -3.60447078	      8.76707325	     64.08742409	      1.11853656	     22.28254083	    -11.19940396	     -7.49999987	    -26.14492684	     -0.24640844	     -4.33754880	     -5.12019187	    -12.31385095	      0.30984970	      5.85627394	     76.46862055	     -3.08613590	    -16.56569521	      9.34778093	      1.90375077	     61.40865614
      2.03333330	    -12.60526202	     -1.88028701	     -2.45642439	      0.24073986	      0.83176473	     -0.06156782	     45.11507641	      0.65574960	      1.84854273	     60.85190667	      1.06206613	     17.82195966	     -9.67572114	     -7.49999987	     42.12307562	     -3.74201783	      8.73647971	     62.64182809	      1.09330615	     21.53167704	    -11.28168137	     -7.49999987	    -25.09472044	      0.11487369	     -4.43567660	     -7.40550390	    -13.30988687	      7.14910522	      5.21706246	     77.44572674	     -6.32993180	    -17.03864449	     10.88823582	      1.94277169	     63.60197963
      2.03750000	    -12.55268155	     -1.94001230	     -2.47419912	      0.24485520	      0.83853446	     -0.06277634	     43.97433198	      0.52709678	      1.73574465	     59.23242676	      1.03380087	     17.02312649	     -9.42534465	     -7.49999987	     41.00182306	     -3.75232779	      8.65218715	     61.11512960	      1.06666023	     21.05367893	    -11.26355120	     -7.49999987	    -24.08991490	      0.47397860	     -3.59481737	    -10.51085568	    -13.81952192	      7.97930066	      5.60491840	     73.95369679	     -8.65530297	    -17.61867360	     10.40858956	      1.68588098	     63.08729827
      2.04166670	    -12.69176424	     -1.91149804	     -2.24684664	      0.24545299	      0.84488254	     -0.06072566	     43.16145426	      0.32322209	      1.51685214	     57.67772909	      1.00666628	     16.18916637	     -9.46518410	     -7.49999987	     40.27128383	     -3.72262826	      8.69423034	     59.64820734	      1.04105761	     20.30253303	    -10.80411860	     -7.49999987	    -23.23156246	      0.35271941	     -4.37525006	    -12.32129022	    -14.50178383	     17.79179057	      5.68582012	     78.01411885	    -11.85670060	    -19.11789476	     15.78967135	      1.89868710	     67.57086907
      2.04583330	    -12.78346788	     -1.91001038	     -2.12114289	      0.24892153	      0.84941592	     -0.05901043	     42.34106997	      0.32295433	      1.11852696	     56.31354291	      0.98285674	     15.47494716	     -9.25261938	     -7.49999987	     39.58092776	     -3.88449650	      8.59885416	     58.20145482	      1.01580702	     19.45945481	    -10.35069350	     -7.49999987	    -22.49033362	      0.44558684	     -4.38894083	    -14.91700069	    -15.26584829	     25.32383029	      7.16054301	     75.36532687	    -14.22356099	    -20.64568601	     21.42718273	      2.12363749	     70.88216975
